<svg id="Layer_1" data-name="Layer 1" xmlns="http://www.w3.org/2000/svg" viewBox="0 0 648.53 200"><title>Logos</title><path d="M632.52,198.83C670.29,108.1,593.1,5.45,469.1,29.26c0,0,119.48-22.17,150.69,92-14.68-21.83-42.52-16.27-55.64-9.52C495.58,147,455.42,57.92,451.79,51.79c-16.16-27.28-39-6.52-39-6.52S447.23-.66,517.14,0C577.8.58,625.53,44.76,640.35,88.64c6.14,18.16,9.42,39.9,7.75,55.77-3.62,34.47-15.58,54.43-15.58,54.43" style="fill:#9c0"/><polygon points="71.13 115.65 71.13 198.83 55.08 198.83 55.08 163.33 17.36 163.33 17.36 198.83 1.19 198.83 1.19 115.65 17.36 115.65 17.36 149.27 55.08 149.27 55.08 115.65 71.13 115.65" style="fill:#9c0"/><path d="M76.23,168.25c0-17.11,12.3-31.87,32.22-31.87s32.1,14.76,32.1,31.87c0,16.87-12.07,31.75-32.1,31.75s-32.22-14.88-32.22-31.75m32.22,18.39c9,0,16-7.73,16-18.51s-7-18.39-16-18.39-16,7.85-16,18.51,7,18.39,16,18.39" style="fill:#9c0"/><path d="M182.57,151c-9.49.12-17.57,3.75-20.85,10.66v37.14H146V137.44h14.41v13.12c4.22-8.32,11.48-14.06,19-14.06a17,17,0,0,1,3.16.24Z" style="fill:#9c0"/><path d="M227.69,195.67c-4.22,1.87-10.78,4.22-17.46,4.22-8.67,0-15.93-4.22-15.93-15.11V149.51h-8V137.44h8V117.52H210v19.92h13v12.07H210v30c0,4.34,2.69,6,6,6a22.64,22.64,0,0,0,8.55-2.23Z" style="fill:#9c0"/><path d="M231.47,113.31h15.7v15.58h-15.7Zm0,24.13h15.7v61.39h-15.7Z" style="fill:#9c0"/><path d="M284.89,136.39c13.35,0,23.08,6.33,27.77,15.7l-15.35,4.69a14.21,14.21,0,0,0-12.54-7c-9,0-16,7.5-16,18.39s7.26,18.51,16,18.51c5.62,0,10.9-3.17,12.77-7.27l15.35,4.69C308.68,193.32,298.48,200,285,200c-19.92,0-32.45-14.88-32.45-31.87s12.3-31.75,32.33-31.75" style="fill:#9c0"/><path d="M317.58,175.87V137.44h15.7v35c0,9.37,3.52,14.18,10.19,14.18,6.21,0,12.3-3.63,15.93-11.13V137.44h15.7v43.34c0,3.28,1.06,4.57,4.22,4.69v13.35a44.45,44.45,0,0,1-7.61.82c-5.62,0-8.9-2.81-9.61-7.27l-.35-5c-5.62,8.44-14.41,12.65-24.84,12.65-12.65,0-19.33-8.32-19.33-24.13" style="fill:#9c0"/><path d="M384.57,113.31h15.7v65.14c0,4.57,2.34,7.15,6.44,7.15a18.45,18.45,0,0,0,6.21-1.53L415,196.6a39.16,39.16,0,0,1-15,3.16c-9.72,0-15.46-5.5-15.46-15.11Z" style="fill:#9c0"/><path d="M451.41,195.67c-4.22,1.87-10.78,4.22-17.46,4.22-8.67,0-15.93-4.22-15.93-15.11V149.51h-8V137.44h8V117.52h15.7v19.92h13v12.07h-13v30c0,4.34,2.69,6,6,6a22.64,22.64,0,0,0,8.55-2.23Z" style="fill:#9c0"/><path d="M452.76,175.87V137.44h15.7v35c0,9.37,3.52,14.18,10.19,14.18,6.21,0,12.3-3.63,15.93-11.13V137.44h15.7v43.34c0,3.28,1.06,4.57,4.22,4.69v13.35a44.45,44.45,0,0,1-7.61.82c-5.62,0-8.9-2.81-9.61-7.27l-.35-5c-5.62,8.44-14.41,12.65-24.84,12.65-12.65,0-19.33-8.32-19.33-24.13" style="fill:#9c0"/><path d="M556.76,151c-9.49.12-17.57,3.75-20.85,10.66v37.14H520.2V137.44h14.41v13.12c4.22-8.32,11.48-14.06,19-14.06a17,17,0,0,1,3.16.24Z" style="fill:#9c0"/><path d="M555.6,168.49c0-17.46,12.42-32.1,32.45-32.1s32,14.88,32,31.51a33,33,0,0,1-.35,5.27H572.23c.82,9.61,8.08,15.35,16.29,15.35,6.21,0,12.53-3.28,14.53-8.32L616.51,184c-4.45,9.37-15,16-28.58,16-19.8,0-32.33-14.53-32.33-31.51M603.86,163c-.82-9.14-7.5-15.23-16-15.23S572.7,153.84,572,163Z" style="fill:#9c0"/><path d="M15.35,61.51c5.74,0,9.93,2.91,11.93,7.06l-2.55,1.55a10.18,10.18,0,0,0-9.57-5.74c-7.74,0-12,6.92-12,13.43C3.19,85,8.42,91.43,15.3,91.43a11.06,11.06,0,0,0,10-6l2.64,1.37c-2.09,4.83-7.83,7.51-12.8,7.51C6.24,94.29,0,85.82,0,77.63c0-7.79,5.6-16.12,15.35-16.12" style="fill:#1d1d1b"/><path d="M51.85,94h-3.1V80.77c0-5.37-1.91-8.06-5.46-8.06S36.1,75.62,35,79.49V94h-3.1V60.78H35V75.67a10.73,10.73,0,0,1,9.34-5.79c5.46,0,7.51,4.15,7.51,10.25Z" style="fill:#1d1d1b"/><path d="M56,87.24c0-4.42,4.1-7.29,10-7.29a20.16,20.16,0,0,1,7,1.23V79c0-4.19-2.6-6.83-6.65-6.83A13.48,13.48,0,0,0,58.64,75l-1.09-2a15.84,15.84,0,0,1,9.06-3.1c5.74,0,9.43,3.55,9.43,9.43V90c0,.87.32,1.28,1.09,1.28V94c-.5,0-.91.09-1.23.09a2.34,2.34,0,0,1-2.5-2.18l-.09-1.87a11.79,11.79,0,0,1-9.2,4.42c-4.87,0-8.15-3.32-8.15-7.24m16.21,1.55A3.39,3.39,0,0,0,72.94,87V83.14a18.93,18.93,0,0,0-6.51-1.23C62,81.91,59,83.82,59,87c0,2.5,2,5.15,5.92,5.15a9.51,9.51,0,0,0,7.28-3.32" style="fill:#1d1d1b"/><path d="M94.1,73a9.12,9.12,0,0,0-8.75,6.24V94h-3.1V70.3h2.91V76c1.64-3.32,4.51-5.83,7.56-5.83a11.51,11.51,0,0,1,1.37,0Z" style="fill:#1d1d1b"/><path d="M110.16,92.88a12.82,12.82,0,0,1-5.37,1.41c-2.69,0-5-1.5-5-4.56v-17H96.5V70.3h3.28v-8h3.1v8h5.46v2.46h-5.46V88.87a2.64,2.64,0,0,0,2.87,2.55,7.44,7.44,0,0,0,3.6-1Z" style="fill:#1d1d1b"/><path d="M111,82.09a11.91,11.91,0,0,1,11.89-12.2c6.92,0,11.7,5.65,11.75,12.16a7.47,7.47,0,0,1-.09,1.23H114.26c.37,5.1,4.19,8.83,8.74,8.83,3.14,0,6.2-1.73,7.29-4.28l2.69.73c-1.46,3.46-5.51,5.92-10.07,5.92C116,94.48,111,88.83,111,82.09m20.68-1.18c-.41-5.05-4.14-8.61-8.79-8.61s-8.38,3.6-8.7,8.61Z" style="fill:#1d1d1b"/><path d="M150.79,73A9.11,9.11,0,0,0,142,79.27V94H139V70.3h2.91V76c1.64-3.32,4.51-5.83,7.56-5.83a11.51,11.51,0,0,1,1.37,0Z" style="fill:#1d1d1b"/><path d="M151.83,82.09a11.91,11.91,0,0,1,11.89-12.2c6.92,0,11.7,5.65,11.75,12.16a7.47,7.47,0,0,1-.09,1.23H155.11c.37,5.1,4.19,8.83,8.74,8.83,3.14,0,6.2-1.73,7.29-4.28l2.69.73c-1.46,3.46-5.51,5.92-10.06,5.92-6.92,0-11.93-5.65-11.93-12.39m20.68-1.18c-.41-5.05-4.14-8.61-8.79-8.61s-8.38,3.6-8.7,8.61Z" style="fill:#1d1d1b"/><path d="M178.42,82.22c0-6.69,4.55-12.34,10.84-12.34a10.71,10.71,0,0,1,9,5.37V60.78h3.1V90c0,.87.32,1.28,1.09,1.28V94a7.34,7.34,0,0,1-1.23.13,2.39,2.39,0,0,1-2.6-2.23v-2.5a10.64,10.64,0,0,1-8.83,5.05c-6.6,0-11.39-5.87-11.39-12.25m19.86,3.64V78.54a9.61,9.61,0,0,0-8.2-5.92c-5.1,0-8.47,4.74-8.47,9.61,0,5.15,3.87,9.52,8.84,9.52,3.14,0,7.33-2.64,7.83-5.87" style="fill:#1d1d1b"/><rect x="220.78" y="61.73" width="3.14" height="32.29" style="fill:#1d1d1b"/><path d="M250.77,94h-3.1V80.77c0-5.6-1.59-8.06-5.06-8.06a9.63,9.63,0,0,0-8.7,6.78V94h-3.1V70.29h2.83v5.38a11.63,11.63,0,0,1,10.06-5.79c5.33,0,7.06,4,7.06,10.25Z" style="fill:#1d1d1b"/><path d="M254.7,90.92l1.41-2.09a12.91,12.91,0,0,0,8.51,3.28c3.78,0,6.29-1.64,6.29-4.46,0-2.64-2.37-3.37-7.15-4.51-5.51-1.37-8-2.32-8-6.06,0-4.78,4-7.2,8.88-7.2a11.86,11.86,0,0,1,8.56,3.23l-1.5,1.82a10,10,0,0,0-7.15-2.73c-3.23,0-5.83,1.32-5.83,4.42,0,2.5,1.69,3.05,5.92,4.05,6.1,1.46,9.24,2.64,9.24,6.69,0,4.33-3.64,7.11-9.24,7.11a15,15,0,0,1-10-3.55" style="fill:#1d1d1b"/><path d="M290,92.88a12.82,12.82,0,0,1-5.37,1.41c-2.69,0-5-1.5-5-4.56v-17h-3.28V70.3h3.28v-8h3.1v8h5.46v2.46h-5.46V88.87a2.64,2.64,0,0,0,2.87,2.55,7.44,7.44,0,0,0,3.6-1Z" style="fill:#1d1d1b"/><path d="M293.23,60.78h3.1v4.55h-3.1Zm0,9.52h3.1V94h-3.1Z" style="fill:#1d1d1b"/><path d="M313.74,92.88a12.82,12.82,0,0,1-5.37,1.41c-2.69,0-5-1.5-5-4.56v-17h-3.28V70.3h3.28v-8h3.1v8h5.46v2.46h-5.46V88.87a2.64,2.64,0,0,0,2.87,2.55,7.44,7.44,0,0,0,3.6-1Z" style="fill:#1d1d1b"/><path d="M316,84.23V70.29h3.1V83.68c0,5.42,1.82,8.06,5.51,8.06a9.35,9.35,0,0,0,8.56-6.51V70.29h3.1V90c0,.87.36,1.28,1.14,1.28V94a8.64,8.64,0,0,1-1.28.14,2.38,2.38,0,0,1-2.55-2.23V88.65a11.4,11.4,0,0,1-10,5.83c-5,0-7.56-3.5-7.56-10.25" style="fill:#1d1d1b"/><path d="M353.82,92.88a12.82,12.82,0,0,1-5.37,1.41c-2.69,0-5-1.5-5-4.56v-17h-3.28V70.3h3.28v-8h3.1v8H352v2.46h-5.46V88.87a2.64,2.64,0,0,0,2.87,2.55,7.44,7.44,0,0,0,3.6-1Z" style="fill:#1d1d1b"/><path d="M354.65,82.09a11.91,11.91,0,0,1,11.89-12.2c6.92,0,11.7,5.65,11.75,12.16a7.47,7.47,0,0,1-.09,1.23H357.93c.36,5.1,4.19,8.83,8.74,8.83,3.14,0,6.2-1.73,7.29-4.28l2.69.73c-1.46,3.46-5.51,5.92-10.07,5.92-6.92,0-11.93-5.65-11.93-12.39m20.68-1.18c-.41-5.05-4.14-8.61-8.79-8.61s-8.38,3.6-8.7,8.61Z" style="fill:#1d1d1b"/><path d="M393,82.23c0-6.65,5-12.34,11.8-12.34s11.8,5.69,11.8,12.34-5,12.25-11.8,12.25S393,88.83,393,82.23m11.75,9.52c4.74,0,8.65-4.28,8.65-9.56s-3.92-9.57-8.61-9.57-8.61,4.33-8.61,9.66,3.82,9.47,8.56,9.47" style="fill:#1d1d1b"/><path d="M422.19,94V75.53h-3.28V73.07h3.28V69.66c0-5.78,2.69-9.34,7-9.34a8.9,8.9,0,0,1,5,1.5l-1,2.23a6,6,0,0,0-3.42-1c-2.91,0-4.51,2.32-4.51,6.56v3.51h6.56v2.46h-6.56V94Z" style="fill:#1d1d1b"/></svg>